HIERARCHY
ROOT Hips
{
     OFFSET 1.88212 96.90440 -13.34250
     CHANNELS 6 Xposition Yposition Zposition Zrotation Xrotation Yrotation
     JOINT Spine
     {
          OFFSET 0.00000 11.89050 0.00000
          CHANNELS 3 Zrotation Xrotation Yrotation
          JOINT Spine1
          {
               OFFSET -0.00000 25.65740 0.12766
               CHANNELS 3 Zrotation Xrotation Yrotation
               JOINT HEad
               {
                    OFFSET 0.00000 8.73416 0.01134
                    CHANNELS 3 Zrotation Xrotation Yrotation
                    End Site
                    {
                         OFFSET -0.29000 12.77420 2.51395
                    }
               }
               JOINT LeftShoulder1
               {
                    OFFSET 8.99000 -0.36225 -0.22000
                    CHANNELS 3 Zrotation Xrotation Yrotation
                    JOINT LeftArm
                    {
                         OFFSET 10.28270 -0.00338 0.32212
                         CHANNELS 3 Zrotation Xrotation Yrotation
                         JOINT LeftForeArm
                         {
                              OFFSET 32.76690 0.09914 -1.42434
                              CHANNELS 3 Zrotation Xrotation Yrotation
                              JOINT LeftHand
                              {
                                   OFFSET 27.56430 0.08536 1.02216
                                   CHANNELS 3 Zrotation Xrotation Yrotation
                                   End Site
                                   {
                                        OFFSET 16.74430 -0.60000 1.50291
                                   }
                              }
                         }
                    }
               }
               JOINT RightShoulder
               {
                    OFFSET -8.99000 -0.36225 -0.22000
                    CHANNELS 3 Zrotation Xrotation Yrotation
                    JOINT RightArm
                    {
                         OFFSET -10.28270 -0.00338 0.32212
                         CHANNELS 3 Zrotation Xrotation Yrotation
                         JOINT RightForeArm
                         {
                              OFFSET -32.89710 0.09914 -1.42434
                              CHANNELS 3 Zrotation Xrotation Yrotation
                              JOINT RightHand
                              {
                                   OFFSET -27.49210 0.08536 1.02216
                                   CHANNELS 3 Zrotation Xrotation Yrotation
                                   End Site
                                   {
                                        OFFSET -16.63120 -0.60000 1.50291
                                   }
                              }
                         }
                    }
               }
          }
     }
     JOINT LeftUpLeg
     {
          OFFSET 8.94580 -8.66707 0.10165
          CHANNELS 3 Zrotation Xrotation Yrotation
          JOINT LeftLeg
          {
               OFFSET 0.00000 -44.42270 1.37270
               CHANNELS 3 Zrotation Xrotation Yrotation
               JOINT LeftFoot
               {
                    OFFSET -0.25355 -42.09240 -1.46059
                    CHANNELS 3 Zrotation Xrotation Yrotation
                    JOINT LeftToes
                    {
                         OFFSET -0.04000 -4.41509 8.49910
                         CHANNELS 3 Zrotation Xrotation Yrotation
                         End Site
                         {
                              OFFSET 0.08000 -0.04745 9.77979
                         }
                    }
               }
          }
     }
     JOINT RightUpLeg
     {
          OFFSET -8.94580 -8.66707 0.10165
          CHANNELS 3 Zrotation Xrotation Yrotation
          JOINT RightLeg
          {
               OFFSET 0.00000 -44.42270 1.37270
               CHANNELS 3 Zrotation Xrotation Yrotation
               JOINT RightFoot
               {
                    OFFSET 0.25355 -42.09240 -1.46059
                    CHANNELS 3 Zrotation Xrotation Yrotation
                    JOINT RightToes
                    {
                         OFFSET 0.04000 -4.41509 8.49910
                         CHANNELS 3 Zrotation Xrotation Yrotation
                         End Site
                         {
                              OFFSET -0.08000 -0.13745 9.77979
                         }
                    }
               }
          }
     }
}
MOTION
Frames: 13
Frame Time: 0.01667
7.50967 92.07490 -44.91676 18.52125 -1.61660 85.34198 -20.80278 23.57361 19.99546 0.04349 0.08413 -0.07449 5.90872 -0.70808 3.66680 7.09927 6.99052 -11.39396 -111.38362 -67.23355 -80.06020 -56.51801 30.34991 -67.01008 -1.36759 24.06586 -15.71117 21.43652 8.26389 -8.01306 81.36030 4.23721 71.03027 12.61472 27.88422 90.32955 17.57310 11.51164 7.02719 25.81384 9.71160 -10.71279 -36.53563 13.20606 74.64658 -20.93704 -0.10165 0.00797 20.76468 -16.95071 -69.23083 -29.91301 7.65187 20.41679 39.24667 5.12559 -41.71223 -25.34046 0.00231 -0.00560 9.09717 -16.51259 11.97786 
7.28058 92.29069 -45.16814 17.99659 -0.93910 86.26106 -20.05993 27.33665 17.82812 0.03545 0.06743 -0.07947 1.99435 0.99387 5.14357 5.28692 4.22995 -10.09639 -116.70805 -68.36064 -85.87139 -50.45029 40.77100 -69.99974 -0.66949 41.17348 -16.45652 19.50904 5.50475 -6.70814 80.66550 4.98521 70.39124 10.60878 26.67363 89.74155 16.98563 12.01127 13.93550 23.56032 7.89418 -11.34592 -33.04370 14.64330 68.19708 -23.00439 -0.13531 -0.00700 23.04733 -15.24215 -62.57172 -28.90856 9.10711 21.45768 35.95325 2.28275 -43.07286 -24.86428 0.00232 -0.00515 9.32901 -15.35001 11.67593 
7.00529 92.57079 -45.49787 17.48124 -0.39594 87.06917 -18.70171 30.18954 15.09651 -0.01583 -0.01772 -0.01166 -2.13772 4.47546 6.60173 3.53605 2.34642 -8.68539 -121.72092 -69.37806 -91.90993 -41.58709 50.16804 -76.69045 2.08576 20.12793 -14.72506 17.76898 3.63188 -5.45310 80.20547 5.58737 70.05496 9.01546 25.99483 89.68877 17.58564 11.95522 11.34066 21.31871 6.36451 -12.02863 -29.28107 15.58626 60.44788 -24.90698 -0.14427 -0.01913 25.18250 -13.05871 -55.32472 -28.01094 10.24369 22.34478 32.89346 -0.25197 -44.62620 -24.50439 0.00189 -0.00396 9.52579 -14.22344 11.64952 
6.71362 92.87916 -45.94680 16.97786 -0.00398 87.75906 -16.90557 32.10355 12.00168 -0.01913 -0.01768 -0.00430 -6.45282 9.40393 8.17082 1.84802 1.14462 -7.11405 -126.58242 -70.26011 -98.07140 -28.04401 58.15492 -88.79114 10.99938 16.46054 -12.03195 16.19317 2.48600 -4.14992 79.89482 6.05301 69.92209 7.71235 25.65855 90.01542 17.15385 12.19622 14.53898 19.16353 5.09662 -12.73056 -26.13605 16.40647 54.06024 -26.58125 -0.10504 -0.03971 26.81077 -12.11027 -48.93365 -27.21507 11.10689 23.09765 30.11819 -2.47577 -46.27191 -24.24762 0.00129 -0.00270 9.66968 -13.20596 11.78109 
6.44869 93.17847 -46.53690 16.48036 0.23938 88.32375 -14.89164 33.11891 8.77065 -0.01954 -0.01121 -0.00039 -10.65602 14.22115 10.01446 0.29647 0.61675 -5.51823 -131.28265 -70.94185 -104.10506 -18.81894 61.50304 -97.53666 13.16411 4.21846 -10.27288 14.86144 2.03663 -2.87064 79.69497 6.34731 69.92759 6.60973 25.54809 90.43731 17.26405 12.08700 12.33516 17.16463 4.02847 -13.41693 -23.49329 17.10480 48.95598 -27.97904 -0.06845 -0.03482 28.08443 -11.73444 -43.86805 -26.53383 11.74837 23.72804 27.66329 -4.37792 -47.91039 -24.04894 0.00092 -0.00200 9.76877 -12.31962 12.05166 
6.25365 93.43896 -47.26895 15.98186 0.35030 88.76426 -12.87264 33.32313 5.61264 -0.01912 -0.00453 0.00261 -14.72341 18.82369 12.12154 -1.11870 0.67863 -3.97502 -135.69041 -71.37103 -109.68988 -14.15328 62.95829 -102.14458 16.09568 5.14925 -8.35778 13.76039 2.19740 -1.66453 79.58999 6.47256 70.01531 5.65991 25.57307 90.95374 16.98874 12.27289 13.83282 15.37287 3.11168 -14.06139 -21.29887 17.68988 45.04605 -29.09945 -0.04149 -0.02654 29.19373 -11.89797 -39.78366 -25.98750 12.21121 24.24041 25.55711 -5.95954 -49.45977 -23.86591 0.00095 -0.00180 9.83688 -11.56911 12.40540 
6.15970 93.63903 -48.12355 15.47932 0.35200 89.08010 -11.02491 32.85275 2.70206 -0.01832 0.00214 0.00518 -18.62951 23.10435 14.45792 -2.37750 1.21724 -2.51606 -139.56769 -71.55209 -114.49542 -12.60428 63.67954 -103.77383 16.50775 0.11152 -7.85429 12.86978 2.85552 -0.51992 79.57359 6.40599 70.15705 4.82669 25.67708 91.44484 16.88053 12.16822 12.25691 13.81853 2.30803 -14.64136 -19.53084 18.19217 42.22721 -29.96965 -0.02313 -0.01915 30.18275 -12.38613 -36.73399 -25.59329 12.53094 24.64084 23.81982 -7.22915 -50.85412 -23.66558 0.00125 -0.00186 9.89279 -10.95895 12.82438 
6.18004 93.77016 -49.06982 14.97425 0.26899 89.27474 -9.45846 31.84733 0.15100 -0.01708 0.00828 0.00705 -22.33954 26.99511 16.97092 -3.45036 2.13660 -1.16708 -142.64507 -71.52041 -118.24498 -12.73175 64.05208 -103.67278 17.36372 2.06436 -7.03435 12.17487 3.91171 0.53153 79.62767 6.16393 70.32588 4.09722 25.82087 91.94276 16.70671 12.28648 13.00198 12.51368 1.58947 -15.14390 -18.17381 18.64334 40.38903 -30.62511 -0.01142 -0.01349 31.08005 -13.15299 -34.58512 -25.35658 12.73089 24.93238 22.46548 -8.19982 -52.04508 -23.43231 0.00160 -0.00187 9.95429 -10.50584 13.29189 
6.30760 93.83561 -50.07759 14.46926 0.12654 89.35685 -8.22380 30.43792 -1.98639 -0.01557 0.01413 0.00850 -25.80451 30.46254 19.58752 -4.32493 3.35677 0.06711 -144.78964 -71.33074 -120.84007 -13.59862 64.19408 -102.72449 17.21286 0.16502 -7.04513 11.67054 5.27717 1.48500 79.73089 5.75120 70.51196 3.46982 25.97870 92.39085 16.54476 12.14588 12.00195 11.51489 0.98615 -15.56330 -17.75274 18.37661 41.62797 -30.03288 0.00684 -0.01838 31.04409 -13.98266 -35.42087 -25.27529 12.82020 25.11449 21.49979 -8.89712 -53.00051 -23.17095 0.00186 -0.00164 10.03729 -10.20921 13.80767 
6.51666 93.84711 -51.13071 13.97156 -0.04528 89.33818 -7.31587 29.14457 -3.66100 -0.01368 0.01496 0.00864 -28.80250 33.17427 21.94426 -4.99077 4.42088 1.11416 -146.00188 -71.02957 -122.33064 -14.67128 64.16205 -101.45078 17.36095 2.01127 -6.74643 11.35763 6.47808 2.31661 79.86187 5.22628 70.70267 2.93795 26.13935 92.83628 16.47333 12.18169 12.42321 10.83241 0.52052 -15.89588 -17.99006 17.69625 45.28600 -28.84128 -0.01952 -0.02834 30.24449 -14.95807 -38.74242 -25.69788 12.82187 24.15942 21.45920 -9.13675 -52.58589 -22.94264 0.00161 -0.00091 10.13053 -10.07452 14.35798 
6.77946 93.82399 -52.20196 13.49238 -0.23257 89.22876 -6.67539 27.99435 -4.93512 -0.01187 0.01518 0.00853 -29.80226 34.25001 22.94745 -5.46034 5.34110 2.00513 -146.41690 -70.65845 -122.89253 -15.68994 63.99079 -100.16650 17.09055 1.46726 -6.87606 11.21132 7.52253 3.03180 80.01160 4.61391 70.89749 2.48909 26.29262 93.27100 16.36438 12.04965 11.83324 10.39309 0.16046 -16.13834 -18.24069 17.31344 48.61497 -27.99123 -0.02328 -0.00747 29.31183 -16.17284 -41.90051 -26.14927 12.71301 23.19843 21.72002 -9.19229 -52.02932 -22.74361 0.00170 -0.00032 10.22475 -10.05427 14.92148 
7.07455 93.78504 -53.25825 13.04403 -0.43087 89.03676 -6.24877 27.00261 -5.85894 -0.01011 0.01502 0.00817 -28.96368 33.92538 22.73465 -5.74772 6.13272 2.76023 -146.22673 -70.24323 -122.75389 -16.54783 63.71907 -99.02155 17.01559 2.95806 -6.76484 11.20836 8.42267 3.62524 80.17419 3.95265 71.09733 2.09485 26.43542 93.73774 16.37922 12.08205 12.07321 10.12814 -0.13572 -16.28838 -18.60097 17.08856 51.65937 -27.31826 -0.01805 -0.00321 28.32010 -17.47412 -44.83171 -26.62026 12.49193 22.24254 22.22165 -9.06704 -51.33494 -22.55772 0.00199 0.00001 10.30318 -10.09842 15.46083 
7.38533 93.74404 -54.27219 12.63636 -0.64089 88.77144 -5.98890 26.17385 -6.47553 -0.00846 0.01462 0.00766 -26.62961 32.34624 21.63543 -5.86880 6.80937 3.39888 -145.64418 -69.80270 -122.15893 -17.24638 63.38321 -98.07614 16.76290 2.99888 -6.85950 11.32856 9.18966 4.10648 80.34765 3.27115 71.30957 1.71959 26.56336 94.24103 16.33949 12.01704 11.70195 9.98999 -0.40051 -16.34752 -19.08964 16.93951 54.43029 -26.73674 -0.01456 -0.00161 27.32550 -18.77362 -47.53220 -27.09788 12.16567 21.30214 22.90289 -8.76694 -50.50688 -22.36623 0.00235 0.00020 10.33701 -10.16810 15.94948 
